<svg width="49" height="49" viewBox="0 0 49 49" xmlns="http://www.w3.org/2000/svg">
    <title>
        Untitled 2
    </title>
    <g fill="none" fill-rule="evenodd">
        <path d="M48.611 24.306C48.611 10.882 37.729 0 24.305 0 10.882 0 0 10.882 0 24.306 0 37.73 10.882 48.612 24.305 48.612c13.424 0 24.306-10.882 24.306-24.306" fill="#7CC8C1"/>
        <path d="M18.9 19.435h3.322v-5.237c0-1.636 0-3.41 1.78-5.189C25.46 7.55 27.46 7.32 28.69 7.32c.913 0 2.373.094 3.508.641v3.461c-.636-.318-1.503-.729-2.73-.729-2.963 0-2.963 2.412-2.963 3.641v5.013h4.19v2.732h-4.19V41.25h-4.283V22.08H18.9v-2.645z" fill="#FFF"/>
    </g>
</svg>
