<svg width="49" height="49" viewBox="0 0 49 49" xmlns="http://www.w3.org/2000/svg">
    <title>
        Untitled 4
    </title>
    <g fill="none" fill-rule="evenodd">
        <path d="M48.611 24.306C48.611 10.882 37.729 0 24.305 0 10.882 0 0 10.882 0 24.306 0 37.73 10.882 48.612 24.305 48.612c13.424 0 24.306-10.882 24.306-24.306" fill="#7CC8C1"/>
        <path d="M24.844 6.917C15.464 6.917 7.86 14.52 7.86 23.9c0 7.018 4.258 13.042 10.33 15.629-.035-.324-.105-1.533.363-4.166.559-3.145 2.166-8.946 2.166-8.946s-1.397-3.145 0-5.241c1.398-2.098 3.1-2.726 4.31-1.05 1.212 1.678.722 2.515.373 3.774-.35 1.259-1.677 4.073-1.048 5.497.629 1.423 2.166 2.262 4.263 1.214 2.096-1.05 3.844-4.823 3.704-8.527-.14-3.704-2.516-6.57-6.43-6.57-3.913 0-7.338 1.678-8.456 4.893-1.118 3.214-.42 5.405 0 6.01.419.606 1 .815.769 1.63-.233.817-.303 1.725-.84 1.725-.535 0-2.05-.815-2.911-2.493-.862-1.677-1.736-5.16.326-8.69 2.062-3.53 6.115-6.43 12.126-5.87 6.01.559 9.54 5.31 9.54 9.225 0 3.914-.944 8.177-5.067 10.938-4.124 2.76-8.003.384-8.212-.98 0 0-.49 1.923-1.188 4.334a15.84 15.84 0 0 1-1.804 3.992c1.484.423 3.049.655 4.669.655 9.379 0 16.983-7.604 16.983-16.983 0-9.38-7.604-16.983-16.983-16.983" fill="#FFF"/>
    </g>
</svg>
