<svg width="49" height="49" viewBox="0 0 49 49" xmlns="http://www.w3.org/2000/svg">
    <title>
        Untitled 5
    </title>
    <g fill="none" fill-rule="evenodd">
        <path d="M48.611 24.306C48.611 10.882 37.729 0 24.305 0 10.882 0 0 10.882 0 24.306 0 37.73 10.882 48.612 24.305 48.612c13.424 0 24.306-10.882 24.306-24.306" fill="#7CC8C1"/>
        <path d="M30.655 23.892a6.191 6.191 0 0 1-12.38 0c0-.774.147-1.51.406-2.194h-7.59v9.222a6.687 6.687 0 0 0 6.686 6.687h13.375a6.687 6.687 0 0 0 6.687-6.687v-9.222h-7.592a6.17 6.17 0 0 1 .408 2.194" fill="#FFF"/>
        <path d="M24.464 20.177a3.715 3.715 0 1 1 .001 7.43 3.715 3.715 0 0 1 0-7.43M34.14 17.183a.752.752 0 0 1-.752.751h-2.254a.75.75 0 0 1-.753-.75v-2.256c0-.415.337-.752.753-.752h2.254c.415 0 .752.336.752.752v2.255zm-2.988-6.324H18.13v6.973h-1.462v-6.874c-.509.085-1 .222-1.463.415v6.46h-1.462v-5.61a6.666 6.666 0 0 0-2.653 5.323v1.958h9.01a6.172 6.172 0 0 1 4.366-1.802 6.17 6.17 0 0 1 4.364 1.802h9.01v-1.958a6.686 6.686 0 0 0-6.686-6.687z" fill="#FFF"/>
    </g>
</svg>
