<svg width="40px" height="30px" viewBox="0 0 40 30" version="1.1" xmlns="http://www.w3.org/2000/svg" xmlns:xlink="http://www.w3.org/1999/xlink">
    <defs>
        <linearGradient x1="115.016618%" y1="-9.07196532%" x2="67.3287572%" y2="34.2806358%" id="quote-close-gradient">
            <stop stop-color="#D9C28F" offset="0%"></stop>
            <stop stop-color="#9C8341" offset="32.92%"></stop>
            <stop stop-color="#918336" offset="62.779999%"></stop>
            <stop stop-color="#F3E094" offset="100%"></stop>
        </linearGradient>
    </defs>
    <g stroke="none" stroke-width="1" fill="none" fill-rule="evenodd">
        <mask id="mask-2" fill="white">
            <path d="M19.1,26.4 C24.8,23.8 33.2,19.1 33.2,11.9 C31.4,12.3 29.5,12 27.8,11.3 C26.2,10.2 25.3,8.5 25.3,6.6 C25.3,2.6 28.5,2.30926389e-14 32.3,2.30926389e-14 C37.1,2.30926389e-14 39.6,4.4 39.6,8.7 C39.6,19.1 29.2,26.1 20.6,29.7 L19.1,26.4 L19.1,26.4 Z M-8.8817842e-14,26.4 C5.7,23.8 14.1,19.1 14.1,11.9 C12.3,12.3 10.4,12 8.7,11.3 C7.1,10.2 6.2,8.5 6.2,6.6 C6.2,2.6 9.4,2.30926389e-14 13.2,2.30926389e-14 C18,2.30926389e-14 20.5,4.4 20.5,8.7 C20.5,19.1 10.1,26.1 1.4,29.7 L-8.8817842e-14,26.4 L-8.8817842e-14,26.4 Z"></path>
        </mask>
        <path d="M19.1,26.4 C24.8,23.8 33.2,19.1 33.2,11.9 C31.4,12.3 29.5,12 27.8,11.3 C26.2,10.2 25.3,8.5 25.3,6.6 C25.3,2.6 28.5,2.30926389e-14 32.3,2.30926389e-14 C37.1,2.30926389e-14 39.6,4.4 39.6,8.7 C39.6,19.1 29.2,26.1 20.6,29.7 L19.1,26.4 L19.1,26.4 Z M-8.8817842e-14,26.4 C5.7,23.8 14.1,19.1 14.1,11.9 C12.3,12.3 10.4,12 8.7,11.3 C7.1,10.2 6.2,8.5 6.2,6.6 C6.2,2.6 9.4,2.30926389e-14 13.2,2.30926389e-14 C18,2.30926389e-14 20.5,4.4 20.5,8.7 C20.5,19.1 10.1,26.1 1.4,29.7 L-8.8817842e-14,26.4 L-8.8817842e-14,26.4 Z" fill="url(#quote-close-gradient)"></path>
    </g>
</svg>
