<svg width="41px" height="31px" viewBox="0 0 41 31" version="1.1" xmlns="http://www.w3.org/2000/svg" xmlns:xlink="http://www.w3.org/1999/xlink">
    <defs>
        <linearGradient x1="-14.8205202%" y1="80.4730825%" x2="55.9887283%" y2="47.1879884%" id="quote-open-gradient">
            <stop stop-color="#D9C28F" offset="0%"></stop>
            <stop stop-color="#9C8341" offset="32.92%"></stop>
            <stop stop-color="#918336" offset="62.78%"></stop>
            <stop stop-color="#F3E094" offset="100%"></stop>
        </linearGradient>
    </defs>
    <g stroke="none" stroke-width="1" fill="none" fill-rule="evenodd">
        <mask fill="white">
            <path d="M21.2,3.7 C15.5,6.3 7.1,11 7.1,18.2 C8.9,17.8 10.8,18.1 12.5,18.8 C14.1,19.9 15,21.6 15,23.5 C15,27.5 11.8,30.1 8,30.1 C3.2,30.1 0.7,25.7 0.7,21.4 C0.7,11 11.1,4 19.7,0.4 L21.2,3.7 Z M40.4,3.7 C34.7,6.3 26.3,11 26.3,18.2 C28.1,17.8 30,18.1 31.7,18.8 C33.3,19.9 34.2,21.6 34.2,23.5 C34.2,27.5 31,30.1 27.2,30.1 C22.4,30.1 19.9,25.7 19.9,21.4 C19.9,11 30.3,4 39,0.4 L40.4,3.7 Z"></path>
        </mask>
        <path d="M21.2,3.7 C15.5,6.3 7.1,11 7.1,18.2 C8.9,17.8 10.8,18.1 12.5,18.8 C14.1,19.9 15,21.6 15,23.5 C15,27.5 11.8,30.1 8,30.1 C3.2,30.1 0.7,25.7 0.7,21.4 C0.7,11 11.1,4 19.7,0.4 L21.2,3.7 Z M40.4,3.7 C34.7,6.3 26.3,11 26.3,18.2 C28.1,17.8 30,18.1 31.7,18.8 C33.3,19.9 34.2,21.6 34.2,23.5 C34.2,27.5 31,30.1 27.2,30.1 C22.4,30.1 19.9,25.7 19.9,21.4 C19.9,11 30.3,4 39,0.4 L40.4,3.7 Z" fill="url(#quote-open-gradient)"></path>
    </g>
</svg>
