<?xml version="1.0" encoding="UTF-8" standalone="no"?>
<!-- Generator: Adobe Illustrator 19.2.1, SVG Export Plug-In . SVG Version: 6.00 Build 0)  -->

<svg
   xmlns:dc="http://purl.org/dc/elements/1.1/"
   xmlns:cc="http://creativecommons.org/ns#"
   xmlns:rdf="http://www.w3.org/1999/02/22-rdf-syntax-ns#"
   xmlns:svg="http://www.w3.org/2000/svg"
   xmlns="http://www.w3.org/2000/svg"
   xmlns:xlink="http://www.w3.org/1999/xlink"
   xmlns:sodipodi="http://sodipodi.sourceforge.net/DTD/sodipodi-0.dtd"
   xmlns:inkscape="http://www.inkscape.org/namespaces/inkscape"
   version="1.1"
   id="close-Layer_1"
   x="0px"
   y="0px"
   viewBox="0 0 39.600001 29.7"
   xml:space="preserve"
   inkscape:version="0.48.4 r9939"
   width="100%"
   height="100%"
   sodipodi:docname="speechbubble-2-gold.svg"><metadata
     id="close-metadata59"><rdf:RDF><cc:Work
         rdf:about=""><dc:format>image/svg+xml</dc:format><dc:type
           rdf:resource="http://purl.org/dc/dcmitype/StillImage" /></cc:Work></rdf:RDF></metadata><defs
     id="close-defs57" /><sodipodi:namedview
     pagecolor="#ffffff"
     bordercolor="#666666"
     borderopacity="1"
     objecttolerance="10"
     gridtolerance="10"
     guidetolerance="10"
     inkscape:pageopacity="0"
     inkscape:pageshadow="2"
     inkscape:window-width="640"
     inkscape:window-height="480"
     id="close-namedview55"
     showgrid="close-false"
     fit-margin-top="0"
     fit-margin-left="0"
     fit-margin-right="0"
     fit-margin-bottom="0"
     inkscape:zoom="4.1622575"
     inkscape:cx="18.55"
     inkscape:cy="16.950001"
     inkscape:window-x="75"
     inkscape:window-y="34"
     inkscape:window-maximized="0"
     inkscape:current-layer="Layer_1" /><style
     type="text/css"
     id="close-style3">
	.st0{clip-path:url(#close-SVGID_5_);fill:url(#close-SVGID_6_);}
</style><g
     id="close-g5"
     transform="translate(-9.8,-15.6)"><g
       id="close-g7"><g
         id="close-g9"><defs
           id="close-defs11"><path
             id="close-SVGID_1_"
             d="M 28.9,42 C 34.6,39.4 43,34.7 43,27.5 c -1.8,0.4 -3.7,0.1 -5.4,-0.6 -1.6,-1.1 -2.5,-2.8 -2.5,-4.7 0,-4 3.2,-6.6 7,-6.6 4.8,0 7.3,4.4 7.3,8.7 0,10.4 -10.4,17.4 -19,21 L 28.9,42 z M 9.8,42 c 5.7,-2.6 14.1,-7.3 14.1,-14.5 -1.8,0.4 -3.7,0.1 -5.4,-0.6 -1.6,-1.1 -2.5,-2.8 -2.5,-4.7 0,-4 3.2,-6.6 7,-6.6 4.8,0 7.3,4.4 7.3,8.7 0,10.4 -10.4,17.4 -19.1,21 L 9.8,42 z"
             inkscape:connector-curvature="0" /></defs><clipPath
           id="close-SVGID_2_"><use
             xlink:href="#close-SVGID_1_"
             style="overflow:visible"
             id="close-use15"
             x="0"
             y="0"
             width="56.700001"
             height="56.700001" /></clipPath></g><g
         id="close-g17"><defs
           id="close-defs19"><path
             id="close-SVGID_3_"
             d="M 28.9,42 C 34.6,39.4 43,34.7 43,27.5 c -1.8,0.4 -3.7,0.1 -5.4,-0.6 -1.6,-1.1 -2.5,-2.8 -2.5,-4.7 0,-4 3.2,-6.6 7,-6.6 4.8,0 7.3,4.4 7.3,8.7 0,10.4 -10.4,17.4 -19,21 L 28.9,42 z M 9.8,42 c 5.7,-2.6 14.1,-7.3 14.1,-14.5 -1.8,0.4 -3.7,0.1 -5.4,-0.6 -1.6,-1.1 -2.5,-2.8 -2.5,-4.7 0,-4 3.2,-6.6 7,-6.6 4.8,0 7.3,4.4 7.3,8.7 0,10.4 -10.4,17.4 -19.1,21 L 9.8,42 z"
             inkscape:connector-curvature="0" /></defs><linearGradient
           id="close-SVGID_4_"
           gradientUnits="userSpaceOnUse"
           x1="3192.6721"
           y1="2279.0562"
           x2="3225.6721"
           y2="2249.0562"
           gradientTransform="matrix(-1,0,0,-1,3266.2021,2267.4106)"><stop
             offset="0"
             style="stop-color:#D9C28F"
             id="close-stop23" /><stop
             offset="0.3292"
             style="stop-color:#9C8341"
             id="close-stop25" /><stop
             offset="0.6278"
             style="stop-color:#918336"
             id="close-stop27" /><stop
             offset="1"
             style="stop-color:#F3E094"
             id="close-stop29" /></linearGradient><use
           xlink:href="#close-SVGID_3_"
           style="fill:url(#close-SVGID_4_);overflow:visible"
           id="close-use31"
           x="0"
           y="0"
           width="56.700001"
           height="56.700001" /><clipPath
           id="close-SVGID_5_"><use
             xlink:href="#close-SVGID_3_"
             style="overflow:visible"
             id="close-use34"
             x="0"
             y="0"
             width="56.700001"
             height="56.700001" /></clipPath><linearGradient
           id="close-SVGID_6_"
           gradientUnits="userSpaceOnUse"
           x1="3191.6106"
           y1="2277.8884"
           x2="3224.6106"
           y2="2247.8884"
           gradientTransform="matrix(-1,0,0,-1,3266.2021,2267.4106)"><stop
             offset="0"
             style="stop-color:#D9C28F"
             id="close-stop37" /><stop
             offset="0.3292"
             style="stop-color:#9C8341"
             id="close-stop39" /><stop
             offset="0.6278"
             style="stop-color:#918336"
             id="close-stop41" /><stop
             offset="1"
             style="stop-color:#F3E094"
             id="close-stop43" /></linearGradient><polygon
           class="st0"
           points="27.7,65 -5,29 31.6,-4.2 64.2,31.9 "
           id="close-polygon45"
           clip-path="url(#close-SVGID_5_)"
           style="fill:url(#close-SVGID_6_)" /></g><g
         id="close-g47"><defs
           id="close-defs49"><path
             id="close-SVGID_7_"
             d="M 28.9,42 C 34.6,39.4 43,34.7 43,27.5 c -1.8,0.4 -3.7,0.1 -5.4,-0.6 -1.6,-1.1 -2.5,-2.8 -2.5,-4.7 0,-4 3.2,-6.6 7,-6.6 4.8,0 7.3,4.4 7.3,8.7 0,10.4 -10.4,17.4 -19,21 L 28.9,42 z M 9.8,42 c 5.7,-2.6 14.1,-7.3 14.1,-14.5 -1.8,0.4 -3.7,0.1 -5.4,-0.6 -1.6,-1.1 -2.5,-2.8 -2.5,-4.7 0,-4 3.2,-6.6 7,-6.6 4.8,0 7.3,4.4 7.3,8.7 0,10.4 -10.4,17.4 -19.1,21 L 9.8,42 z"
             inkscape:connector-curvature="0" /></defs><clipPath
           id="close-SVGID_8_"><use
             xlink:href="#close-SVGID_7_"
             style="overflow:visible"
             id="close-use53"
             x="0"
             y="0"
             width="56.700001"
             height="56.700001" /></clipPath></g></g></g></svg>
