<?xml version="1.0" encoding="UTF-8" standalone="no"?>
<!-- Generator: Adobe Illustrator 19.2.1, SVG Export Plug-In . SVG Version: 6.00 Build 0)  -->

<svg
   xmlns:dc="http://purl.org/dc/elements/1.1/"
   xmlns:cc="http://creativecommons.org/ns#"
   xmlns:rdf="http://www.w3.org/1999/02/22-rdf-syntax-ns#"
   xmlns:svg="http://www.w3.org/2000/svg"
   xmlns="http://www.w3.org/2000/svg"
   xmlns:xlink="http://www.w3.org/1999/xlink"
   xmlns:sodipodi="http://sodipodi.sourceforge.net/DTD/sodipodi-0.dtd"
   xmlns:inkscape="http://www.inkscape.org/namespaces/inkscape"
   version="1.1"
   id="open-Layer_1"
   x="0px"
   y="0px"
   viewBox="0 0 39.700001 29.7"
   xml:space="preserve"
   inkscape:version="0.48.4 r9939"
   width="100%"
   height="100%"
   sodipodi:docname="speechbubble-1-gold.svg"><metadata
     id="open-metadata59"><rdf:RDF><cc:Work
         rdf:about=""><dc:format>image/svg+xml</dc:format><dc:type
           rdf:resource="http://purl.org/dc/dcmitype/StillImage" /></cc:Work></rdf:RDF></metadata><defs
     id="open-defs57" /><sodipodi:namedview
     pagecolor="#ffffff"
     bordercolor="#666666"
     borderopacity="1"
     objecttolerance="10"
     gridtolerance="10"
     guidetolerance="10"
     inkscape:pageopacity="0"
     inkscape:pageshadow="2"
     inkscape:window-width="640"
     inkscape:window-height="480"
     id="open-namedview55"
     showgrid="open-false"
     fit-margin-top="0"
     fit-margin-left="0"
     fit-margin-right="0"
     fit-margin-bottom="0"
     inkscape:zoom="4.1622575"
     inkscape:cx="17.65"
     inkscape:cy="14.750001"
     inkscape:window-x="75"
     inkscape:window-y="34"
     inkscape:window-maximized="0"
     inkscape:current-layer="Layer_1" /><style
     type="text/css"
     id="open-style3">
	.st0{clip-path:url(#open-SVGID_5_);fill:url(#open-SVGID_6_);}
</style><g
     id="open-g5"
     transform="translate(-10.7,-13.4)"><g
       id="open-g7"><g
         id="open-g9"><defs
           id="open-defs11"><path
             id="open-SVGID_1_"
             d="m 31.2,16.7 c -5.7,2.6 -14.1,7.3 -14.1,14.5 1.8,-0.4 3.7,-0.1 5.4,0.6 1.6,1.1 2.5,2.8 2.5,4.7 0,4 -3.2,6.6 -7,6.6 -4.8,0 -7.3,-4.4 -7.3,-8.7 0,-10.4 10.4,-17.4 19,-21 l 1.5,3.3 z m 19.2,0 c -5.7,2.6 -14.1,7.3 -14.1,14.5 1.8,-0.4 3.7,-0.1 5.4,0.6 1.6,1.1 2.5,2.8 2.5,4.7 0,4 -3.2,6.6 -7,6.6 -4.8,0 -7.3,-4.4 -7.3,-8.7 C 29.9,24 40.3,17 49,13.4 l 1.4,3.3 z"
             inkscape:connector-curvature="0" /></defs><clipPath
           id="open-SVGID_2_"><use
             xlink:href="#open-SVGID_1_"
             style="overflow:visible"
             id="open-use15"
             x="0"
             y="0"
             width="56.700001"
             height="56.700001" /></clipPath></g><g
         id="open-g17"><defs
           id="open-defs19"><path
             id="open-SVGID_3_"
             d="m 31.2,16.7 c -5.7,2.6 -14.1,7.3 -14.1,14.5 1.8,-0.4 3.7,-0.1 5.4,0.6 1.6,1.1 2.5,2.8 2.5,4.7 0,4 -3.2,6.6 -7,6.6 -4.8,0 -7.3,-4.4 -7.3,-8.7 0,-10.4 10.4,-17.4 19,-21 l 1.5,3.3 z m 19.2,0 c -5.7,2.6 -14.1,7.3 -14.1,14.5 1.8,-0.4 3.7,-0.1 5.4,0.6 1.6,1.1 2.5,2.8 2.5,4.7 0,4 -3.2,6.6 -7,6.6 -4.8,0 -7.3,-4.4 -7.3,-8.7 C 29.9,24 40.3,17 49,13.4 l 1.4,3.3 z"
             inkscape:connector-curvature="0" /></defs><linearGradient
           id="open-SVGID_4_"
           gradientUnits="userSpaceOnUse"
           x1="-13.6853"
           y1="50.8354"
           x2="35.314701"
           y2="27.8354"><stop
             offset="0"
             style="stop-color:#D9C28F"
             id="open-stop23" /><stop
             offset="0.3292"
             style="stop-color:#9C8341"
             id="open-stop25" /><stop
             offset="0.6278"
             style="stop-color:#918336"
             id="open-stop27" /><stop
             offset="1"
             style="stop-color:#F3E094"
             id="open-stop29" /></linearGradient><use
           xlink:href="#open-SVGID_3_"
           style="fill:url(#open-SVGID_4_);overflow:visible"
           id="open-use31"
           x="0"
           y="0"
           width="56.700001"
           height="56.700001" /><clipPath
           id="open-SVGID_5_"><use
             xlink:href="#open-SVGID_3_"
             style="overflow:visible"
             id="open-use34"
             x="0"
             y="0"
             width="56.700001"
             height="56.700001" /></clipPath><linearGradient
           id="open-SVGID_6_"
           gradientUnits="userSpaceOnUse"
           x1="-14.3558"
           y1="49.406898"
           x2="34.644199"
           y2="26.4069"><stop
             offset="0"
             style="stop-color:#D9C28F"
             id="open-stop37" /><stop
             offset="0.3292"
             style="stop-color:#9C8341"
             id="open-stop39" /><stop
             offset="0.6278"
             style="stop-color:#918336"
             id="open-stop41" /><stop
             offset="1"
             style="stop-color:#F3E094"
             id="open-stop43" /></linearGradient><polygon
           class="st0"
           points="32.4,-6.2 65.1,29.8 28.6,62.9 -4.1,26.9 "
           id="open-polygon45"
           clip-path="url(#open-SVGID_5_)"
           style="fill:url(#open-SVGID_6_)" /></g><g
         id="open-g47"><defs
           id="open-defs49"><path
             id="open-SVGID_7_"
             d="m 31.2,16.7 c -5.7,2.6 -14.1,7.3 -14.1,14.5 1.8,-0.4 3.7,-0.1 5.4,0.6 1.6,1.1 2.5,2.8 2.5,4.7 0,4 -3.2,6.6 -7,6.6 -4.8,0 -7.3,-4.4 -7.3,-8.7 0,-10.4 10.4,-17.4 19,-21 l 1.5,3.3 z m 19.2,0 c -5.7,2.6 -14.1,7.3 -14.1,14.5 1.8,-0.4 3.7,-0.1 5.4,0.6 1.6,1.1 2.5,2.8 2.5,4.7 0,4 -3.2,6.6 -7,6.6 -4.8,0 -7.3,-4.4 -7.3,-8.7 C 29.9,24 40.3,17 49,13.4 l 1.4,3.3 z"
             inkscape:connector-curvature="0" /></defs><clipPath
           id="open-SVGID_8_"><use
             xlink:href="#open-SVGID_7_"
             style="overflow:visible"
             id="open-use53"
             x="0"
             y="0"
             width="56.700001"
             height="56.700001" /></clipPath></g></g></g></svg>
