<svg xmlns="http://www.w3.org/2000/svg" width="100%" height="100%" viewBox="0 0 39.600001 29.7">
  <g transform="translate(-9.8,-15.6)" id="close-g5">
    <g id="close-g7">
      <g id="close-g9">
        <defs id="close-defs11"><path
          d="M 28.9,42 C 34.6,39.4 43,34.7 43,27.5 c -1.8,0.4 -3.7,0.1 -5.4,-0.6 -1.6,-1.1 -2.5,-2.8 -2.5,-4.7 0,-4 3.2,-6.6 7,-6.6 4.8,0 7.3,4.4 7.3,8.7 0,10.4 -10.4,17.4 -19,21 L 28.9,42 z M 9.8,42 c 5.7,-2.6 14.1,-7.3 14.1,-14.5 -1.8,0.4 -3.7,0.1 -5.4,-0.6 -1.6,-1.1 -2.5,-2.8 -2.5,-4.7 0,-4 3.2,-6.6 7,-6.6 4.8,0 7.3,4.4 7.3,8.7 0,10.4 -10.4,17.4 -19.1,21 L 9.8,42 z"
          id="close-SVGID_1_"/></defs>
        <clipPath id="close-SVGID_2_"><use id="close-use15" style="overflow:visible" x="0" y="0" width="56.700001" height="56.700001" xmlns:xlink="http://www.w3.org/1999/xlink" xlink:href="#close-SVGID_1_"/></clipPath>
      </g>
      <g id="close-g17">
        <defs id="close-defs19"><path
          d="M 28.9,42 C 34.6,39.4 43,34.7 43,27.5 c -1.8,0.4 -3.7,0.1 -5.4,-0.6 -1.6,-1.1 -2.5,-2.8 -2.5,-4.7 0,-4 3.2,-6.6 7,-6.6 4.8,0 7.3,4.4 7.3,8.7 0,10.4 -10.4,17.4 -19,21 L 28.9,42 z M 9.8,42 c 5.7,-2.6 14.1,-7.3 14.1,-14.5 -1.8,0.4 -3.7,0.1 -5.4,-0.6 -1.6,-1.1 -2.5,-2.8 -2.5,-4.7 0,-4 3.2,-6.6 7,-6.6 4.8,0 7.3,4.4 7.3,8.7 0,10.4 -10.4,17.4 -19.1,21 L 9.8,42 z"
          id="close-SVGID_3_"/></defs>
        <linearGradient x1="3192.6721" y1="2279.0562" x2="3225.6721" y2="2249.0562" id="close-SVGID_4_" gradientUnits="userSpaceOnUse" gradientTransform="matrix(-1,0,0,-1,3266.2021,2267.4106)"><stop id="close-stop23" style="stop-color:#d9c28f;stop-opacity:1" offset="0"/><stop id="close-stop25" style="stop-color:#9c8341;stop-opacity:1" offset="0.3292"/><stop id="close-stop27" style="stop-color:#918336;stop-opacity:1" offset="0.62779999"/><stop id="close-stop29" style="stop-color:#f3e094;stop-opacity:1" offset="1"/></linearGradient><use id="close-use31" style="fill:url(#close-SVGID_4_);overflow:visible" x="0" y="0" width="56.700001" height="56.700001" xmlns:xlink="http://www.w3.org/1999/xlink" xlink:href="#close-SVGID_3_"/>
        <clipPath id="close-SVGID_5_"><use id="close-use34" style="overflow:visible" x="0" y="0" width="56.700001" height="56.700001" xmlns:xlink="http://www.w3.org/1999/xlink" xlink:href="#close-SVGID_3_"/></clipPath>
        <linearGradient x1="3191.6106" y1="2277.8884" x2="3224.6106" y2="2247.8884" id="close-SVGID_6_" gradientUnits="userSpaceOnUse" gradientTransform="matrix(-1,0,0,-1,3266.2021,2267.4106)"><stop id="close-stop37" style="stop-color:#d9c28f;stop-opacity:1" offset="0"/><stop id="close-stop39" style="stop-color:#9c8341;stop-opacity:1" offset="0.3292"/><stop id="close-stop41" style="stop-color:#918336;stop-opacity:1" offset="0.62779999"/><stop id="close-stop43" style="stop-color:#f3e094;stop-opacity:1" offset="1"/></linearGradient><polygon points="-5,29 31.6,-4.2 64.2,31.9 27.7,65 " clip-path="url(#close-SVGID_5_)" id="close-polygon45" style="fill:url(#close-SVGID_6_)"/></g>
      <g id="close-g47">
        <defs id="close-defs49"><path
          d="M 28.9,42 C 34.6,39.4 43,34.7 43,27.5 c -1.8,0.4 -3.7,0.1 -5.4,-0.6 -1.6,-1.1 -2.5,-2.8 -2.5,-4.7 0,-4 3.2,-6.6 7,-6.6 4.8,0 7.3,4.4 7.3,8.7 0,10.4 -10.4,17.4 -19,21 L 28.9,42 z M 9.8,42 c 5.7,-2.6 14.1,-7.3 14.1,-14.5 -1.8,0.4 -3.7,0.1 -5.4,-0.6 -1.6,-1.1 -2.5,-2.8 -2.5,-4.7 0,-4 3.2,-6.6 7,-6.6 4.8,0 7.3,4.4 7.3,8.7 0,10.4 -10.4,17.4 -19.1,21 L 9.8,42 z"
          id="close-SVGID_7_"/></defs>
        <clipPath id="close-SVGID_8_"><use id="close-use53" style="overflow:visible" x="0" y="0" width="56.700001" height="56.700001" xmlns:xlink="http://www.w3.org/1999/xlink" xlink:href="#close-SVGID_7_"/></clipPath>
      </g>
    </g>
  </g>
</svg>
