<svg width="49" height="49" viewBox="0 0 49 49" xmlns="http://www.w3.org/2000/svg">
    <title>
        Untitled 3
    </title>
    <g fill="none" fill-rule="evenodd">
        <path d="M48.611 24.306C48.611 10.882 37.729 0 24.305 0 10.882 0 0 10.882 0 24.306 0 37.73 10.882 48.612 24.305 48.612c13.424 0 24.306-10.882 24.306-24.306" fill="#7CC8C1"/>
        <path d="M11.174 34.58s13.161 6.534 21.113-1.666c5.821-6.01 5.264-13.005 5.264-13.005l2.97-3.528-3.53.497 2.477-2.23-3.589.62s-4.644-2.233-7.804-.56c-3.154 1.673-2.227 6.501-2.227 6.501s-8.916.125-12.633-6.932c0 0-2.04 5.141.931 7.927l-2.413-.87S12.97 26.6 17.43 28.27c0 0-1.61.496-3.283.247 0 0 2.228 3.836 6.316 4.397 0 0-4.458 2.595-9.288 1.666" fill="#FFF"/>
    </g>
</svg>
