<svg xmlns="http://www.w3.org/2000/svg"><symbol id="facebook" viewBox="0 0 49 49"><g fill="none" fill-rule="evenodd"><path d="M48.611 24.306C48.611 10.882 37.729 0 24.305 0 10.882 0 0 10.882 0 24.306 0 37.73 10.882 48.612 24.305 48.612c13.424 0 24.306-10.882 24.306-24.306" fill="#7CC8C1"/><path d="M18.9 19.435h3.322v-5.237c0-1.636 0-3.41 1.78-5.189C25.46 7.55 27.46 7.32 28.69 7.32c.913 0 2.373.094 3.508.641v3.461c-.636-.318-1.503-.729-2.73-.729-2.963 0-2.963 2.412-2.963 3.641v5.013h4.19v2.732h-4.19V41.25h-4.283V22.08H18.9v-2.645z" fill="#FFF"/></g></symbol><symbol id="heart" viewBox="0 0 24 22"><g fill="none" fill-rule="evenodd"><path d="M17.299.837c-3.524 0-5.396 2.958-5.396 2.958S10.034.837 6.508.837C2.985.837.766 3.143.766 6.515s2.087 6.591 4.915 9.506 6.222 5.656 6.222 5.656 3.394-2.741 6.222-5.656c2.828-2.915 4.916-6.134 4.916-9.506S20.823.837 17.3.837" id="Fill-115" fill="#7CC8C1"/></g></symbol><symbol id="instagram" viewBox="0 0 49 49"><g fill="none" fill-rule="evenodd"><path d="M48.611 24.306C48.611 10.882 37.729 0 24.305 0 10.882 0 0 10.882 0 24.306 0 37.73 10.882 48.612 24.305 48.612c13.424 0 24.306-10.882 24.306-24.306" fill="#7CC8C1"/><path d="M30.655 23.892a6.191 6.191 0 0 1-12.38 0c0-.774.147-1.51.406-2.194h-7.59v9.222a6.687 6.687 0 0 0 6.686 6.687h13.375a6.687 6.687 0 0 0 6.687-6.687v-9.222h-7.592a6.17 6.17 0 0 1 .408 2.194" fill="#FFF"/><path d="M24.464 20.177a3.715 3.715 0 1 1 .001 7.43 3.715 3.715 0 0 1 0-7.43m9.675-2.994a.752.752 0 0 1-.752.751h-2.254a.75.75 0 0 1-.753-.75v-2.256c0-.415.337-.752.753-.752h2.254c.415 0 .752.336.752.752v2.255zm-2.988-6.324H18.13v6.973h-1.462v-6.874c-.509.085-1 .222-1.463.415v6.46h-1.462v-5.61a6.666 6.666 0 0 0-2.653 5.323v1.958h9.01a6.172 6.172 0 0 1 4.366-1.802 6.17 6.17 0 0 1 4.364 1.802h9.01v-1.958a6.686 6.686 0 0 0-6.686-6.687z" fill="#FFF"/></g></symbol><symbol id="pinterest" viewBox="0 0 49 49"><g fill="none" fill-rule="evenodd"><path d="M48.611 24.306C48.611 10.882 37.729 0 24.305 0 10.882 0 0 10.882 0 24.306 0 37.73 10.882 48.612 24.305 48.612c13.424 0 24.306-10.882 24.306-24.306" fill="#7CC8C1"/><path d="M24.844 6.917C15.464 6.917 7.86 14.52 7.86 23.9c0 7.018 4.258 13.042 10.33 15.629-.035-.324-.105-1.533.363-4.166.559-3.145 2.166-8.946 2.166-8.946s-1.397-3.145 0-5.241c1.398-2.098 3.1-2.726 4.31-1.05 1.212 1.678.722 2.515.373 3.774-.35 1.259-1.677 4.073-1.048 5.497.629 1.423 2.166 2.262 4.263 1.214 2.096-1.05 3.844-4.823 3.704-8.527-.14-3.704-2.516-6.57-6.43-6.57-3.913 0-7.338 1.678-8.456 4.893-1.118 3.214-.42 5.405 0 6.01.419.606 1 .815.769 1.63-.233.817-.303 1.725-.84 1.725-.535 0-2.05-.815-2.911-2.493-.862-1.677-1.736-5.16.326-8.69 2.062-3.53 6.115-6.43 12.126-5.87 6.01.559 9.54 5.31 9.54 9.225 0 3.914-.944 8.177-5.067 10.938-4.124 2.76-8.003.384-8.212-.98 0 0-.49 1.923-1.188 4.334a15.84 15.84 0 0 1-1.804 3.992c1.484.423 3.049.655 4.669.655 9.379 0 16.983-7.604 16.983-16.983 0-9.38-7.604-16.983-16.983-16.983" fill="#FFF"/></g></symbol><symbol id="quote-close" viewBox="0 0 40 30"><defs><linearGradient x1="115.017%" y1="-9.072%" x2="67.329%" y2="34.281%" id="quote-close-gradient"><stop stop-color="#D9C28F" offset="0%"/><stop stop-color="#9C8341" offset="32.92%"/><stop stop-color="#918336" offset="62.78%"/><stop stop-color="#F3E094" offset="100%"/></linearGradient></defs><g fill="none" fill-rule="evenodd"><mask id="mask-2" fill="#fff"><path d="M19.1 26.4c5.7-2.6 14.1-7.3 14.1-14.5-1.8.4-3.7.1-5.4-.6-1.6-1.1-2.5-2.8-2.5-4.7 0-4 3.2-6.6 7-6.6 4.8 0 7.3 4.4 7.3 8.7 0 10.4-10.4 17.4-19 21l-1.5-3.3zM0 26.4c5.7-2.6 14.1-7.3 14.1-14.5-1.8.4-3.7.1-5.4-.6-1.6-1.1-2.5-2.8-2.5-4.7 0-4 3.2-6.6 7-6.6 4.8 0 7.3 4.4 7.3 8.7 0 10.4-10.4 17.4-19.1 21L0 26.4z"/></mask><path d="M19.1 26.4c5.7-2.6 14.1-7.3 14.1-14.5-1.8.4-3.7.1-5.4-.6-1.6-1.1-2.5-2.8-2.5-4.7 0-4 3.2-6.6 7-6.6 4.8 0 7.3 4.4 7.3 8.7 0 10.4-10.4 17.4-19 21l-1.5-3.3zM0 26.4c5.7-2.6 14.1-7.3 14.1-14.5-1.8.4-3.7.1-5.4-.6-1.6-1.1-2.5-2.8-2.5-4.7 0-4 3.2-6.6 7-6.6 4.8 0 7.3 4.4 7.3 8.7 0 10.4-10.4 17.4-19.1 21L0 26.4z" fill="url(#quote-close-gradient)"/></g></symbol><symbol id="quote-open" viewBox="0 0 41 31"><defs><linearGradient x1="-14.821%" y1="80.473%" x2="55.989%" y2="47.188%" id="quote-open-gradient"><stop stop-color="#D9C28F" offset="0%"/><stop stop-color="#9C8341" offset="32.92%"/><stop stop-color="#918336" offset="62.78%"/><stop stop-color="#F3E094" offset="100%"/></linearGradient></defs><path d="M21.2 3.7C15.5 6.3 7.1 11 7.1 18.2c1.8-.4 3.7-.1 5.4.6 1.6 1.1 2.5 2.8 2.5 4.7 0 4-3.2 6.6-7 6.6-4.8 0-7.3-4.4-7.3-8.7C.7 11 11.1 4 19.7.4l1.5 3.3zm19.2 0C34.7 6.3 26.3 11 26.3 18.2c1.8-.4 3.7-.1 5.4.6 1.6 1.1 2.5 2.8 2.5 4.7 0 4-3.2 6.6-7 6.6-4.8 0-7.3-4.4-7.3-8.7C19.9 11 30.3 4 39 .4l1.4 3.3z" fill="url(#quote-open-gradient)" fill-rule="evenodd"/></symbol><symbol id="twitter" viewBox="0 0 49 49"><g fill="none" fill-rule="evenodd"><path d="M48.611 24.306C48.611 10.882 37.729 0 24.305 0 10.882 0 0 10.882 0 24.306 0 37.73 10.882 48.612 24.305 48.612c13.424 0 24.306-10.882 24.306-24.306" fill="#7CC8C1"/><path d="M11.174 34.58s13.161 6.534 21.113-1.666c5.821-6.01 5.264-13.005 5.264-13.005l2.97-3.528-3.53.497 2.477-2.23-3.589.62s-4.644-2.233-7.804-.56c-3.154 1.673-2.227 6.501-2.227 6.501s-8.916.125-12.633-6.932c0 0-2.04 5.141.931 7.927l-2.413-.87S12.97 26.6 17.43 28.27c0 0-1.61.496-3.283.247 0 0 2.228 3.836 6.316 4.397 0 0-4.458 2.595-9.288 1.666" fill="#FFF"/></g></symbol></svg>