<svg xmlns="http://www.w3.org/2000/svg"><symbol id="facebook" viewBox="0 0 49 49"><g fill="none" fill-rule="evenodd"><path d="M48.611 24.306C48.611 10.882 37.729 0 24.305 0 10.882 0 0 10.882 0 24.306 0 37.73 10.882 48.612 24.305 48.612c13.424 0 24.306-10.882 24.306-24.306" fill="#7CC8C1"/><path d="M18.9 19.435h3.322v-5.237c0-1.636 0-3.41 1.78-5.189C25.46 7.55 27.46 7.32 28.69 7.32c.913 0 2.373.094 3.508.641v3.461c-.636-.318-1.503-.729-2.73-.729-2.963 0-2.963 2.412-2.963 3.641v5.013h4.19v2.732h-4.19V41.25h-4.283V22.08H18.9v-2.645z" fill="#FFF"/></g></symbol><symbol id="heart" viewBox="0 0 24 22"><g fill="none" fill-rule="evenodd"><path d="M17.299.837c-3.524 0-5.396 2.958-5.396 2.958S10.034.837 6.508.837C2.985.837.766 3.143.766 6.515s2.087 6.591 4.915 9.506 6.222 5.656 6.222 5.656 3.394-2.741 6.222-5.656c2.828-2.915 4.916-6.134 4.916-9.506S20.823.837 17.3.837" id="Fill-115" fill="#7CC8C1"/></g></symbol><symbol id="instagram" viewBox="0 0 49 49"><g fill="none" fill-rule="evenodd"><path d="M48.611 24.306C48.611 10.882 37.729 0 24.305 0 10.882 0 0 10.882 0 24.306 0 37.73 10.882 48.612 24.305 48.612c13.424 0 24.306-10.882 24.306-24.306" fill="#7CC8C1"/><path d="M30.655 23.892a6.191 6.191 0 0 1-12.38 0c0-.774.147-1.51.406-2.194h-7.59v9.222a6.687 6.687 0 0 0 6.686 6.687h13.375a6.687 6.687 0 0 0 6.687-6.687v-9.222h-7.592a6.17 6.17 0 0 1 .408 2.194" fill="#FFF"/><path d="M24.464 20.177a3.715 3.715 0 1 1 .001 7.43 3.715 3.715 0 0 1 0-7.43m9.675-2.994a.752.752 0 0 1-.752.751h-2.254a.75.75 0 0 1-.753-.75v-2.256c0-.415.337-.752.753-.752h2.254c.415 0 .752.336.752.752v2.255zm-2.988-6.324H18.13v6.973h-1.462v-6.874c-.509.085-1 .222-1.463.415v6.46h-1.462v-5.61a6.666 6.666 0 0 0-2.653 5.323v1.958h9.01a6.172 6.172 0 0 1 4.366-1.802 6.17 6.17 0 0 1 4.364 1.802h9.01v-1.958a6.686 6.686 0 0 0-6.686-6.687z" fill="#FFF"/></g></symbol><symbol id="pinterest" viewBox="0 0 49 49"><g fill="none" fill-rule="evenodd"><path d="M48.611 24.306C48.611 10.882 37.729 0 24.305 0 10.882 0 0 10.882 0 24.306 0 37.73 10.882 48.612 24.305 48.612c13.424 0 24.306-10.882 24.306-24.306" fill="#7CC8C1"/><path d="M24.844 6.917C15.464 6.917 7.86 14.52 7.86 23.9c0 7.018 4.258 13.042 10.33 15.629-.035-.324-.105-1.533.363-4.166.559-3.145 2.166-8.946 2.166-8.946s-1.397-3.145 0-5.241c1.398-2.098 3.1-2.726 4.31-1.05 1.212 1.678.722 2.515.373 3.774-.35 1.259-1.677 4.073-1.048 5.497.629 1.423 2.166 2.262 4.263 1.214 2.096-1.05 3.844-4.823 3.704-8.527-.14-3.704-2.516-6.57-6.43-6.57-3.913 0-7.338 1.678-8.456 4.893-1.118 3.214-.42 5.405 0 6.01.419.606 1 .815.769 1.63-.233.817-.303 1.725-.84 1.725-.535 0-2.05-.815-2.911-2.493-.862-1.677-1.736-5.16.326-8.69 2.062-3.53 6.115-6.43 12.126-5.87 6.01.559 9.54 5.31 9.54 9.225 0 3.914-.944 8.177-5.067 10.938-4.124 2.76-8.003.384-8.212-.98 0 0-.49 1.923-1.188 4.334a15.84 15.84 0 0 1-1.804 3.992c1.484.423 3.049.655 4.669.655 9.379 0 16.983-7.604 16.983-16.983 0-9.38-7.604-16.983-16.983-16.983" fill="#FFF"/></g></symbol><symbol id="speechbubble-1-gold" viewBox="0 0 39.700001 29.7"><g id="open-g5"><g id="open-g7"><g id="open-g9" transform="translate(-10.7 -13.4)"><defs id="open-defs11"><path d="M31.2 16.7c-5.7 2.6-14.1 7.3-14.1 14.5 1.8-.4 3.7-.1 5.4.6 1.6 1.1 2.5 2.8 2.5 4.7 0 4-3.2 6.6-7 6.6-4.8 0-7.3-4.4-7.3-8.7 0-10.4 10.4-17.4 19-21l1.5 3.3zm19.2 0c-5.7 2.6-14.1 7.3-14.1 14.5 1.8-.4 3.7-.1 5.4.6 1.6 1.1 2.5 2.8 2.5 4.7 0 4-3.2 6.6-7 6.6-4.8 0-7.3-4.4-7.3-8.7C29.9 24 40.3 17 49 13.4l1.4 3.3z" id="open-SVGID_1_"/></defs><clipPath id="open-SVGID_2_"><use id="open-use15" width="56.7" height="56.7" xmlns:xlink="http://www.w3.org/1999/xlink" xlink:href="#open-SVGID_1_" overflow="visible"/></clipPath></g><g id="open-g17" transform="translate(-10.7 -13.4)"><defs id="open-defs19"><path d="M31.2 16.7c-5.7 2.6-14.1 7.3-14.1 14.5 1.8-.4 3.7-.1 5.4.6 1.6 1.1 2.5 2.8 2.5 4.7 0 4-3.2 6.6-7 6.6-4.8 0-7.3-4.4-7.3-8.7 0-10.4 10.4-17.4 19-21l1.5 3.3zm19.2 0c-5.7 2.6-14.1 7.3-14.1 14.5 1.8-.4 3.7-.1 5.4.6 1.6 1.1 2.5 2.8 2.5 4.7 0 4-3.2 6.6-7 6.6-4.8 0-7.3-4.4-7.3-8.7C29.9 24 40.3 17 49 13.4l1.4 3.3z" id="open-SVGID_3_"/></defs><linearGradient x1="-13.685" y1="50.835" x2="35.315" y2="27.835" id="open-SVGID_4_" gradientUnits="userSpaceOnUse"><stop id="open-stop23" offset="0" stop-color="#d9c28f"/><stop id="open-stop25" offset=".329" stop-color="#9c8341"/><stop id="open-stop27" offset=".628" stop-color="#918336"/><stop id="open-stop29" offset="1" stop-color="#f3e094"/></linearGradient><use id="open-use31" width="56.7" height="56.7" xmlns:xlink="http://www.w3.org/1999/xlink" xlink:href="#open-SVGID_3_" fill="url(#open-SVGID_4_)" overflow="visible"/><clipPath id="open-SVGID_5_"><use id="open-use34" width="56.7" height="56.7" xmlns:xlink="http://www.w3.org/1999/xlink" xlink:href="#open-SVGID_3_" overflow="visible"/></clipPath><linearGradient x1="-14.356" y1="49.407" x2="34.644" y2="26.407" id="open-SVGID_6_" gradientUnits="userSpaceOnUse"><stop id="open-stop37" offset="0" stop-color="#d9c28f"/><stop id="open-stop39" offset=".329" stop-color="#9c8341"/><stop id="open-stop41" offset=".628" stop-color="#918336"/><stop id="open-stop43" offset="1" stop-color="#f3e094"/></linearGradient><path clip-path="url(#open-SVGID_5_)" id="open-polygon45" fill="url(#open-SVGID_6_)" d="M65.1 29.8L28.6 62.9l-32.7-36L32.4-6.2z"/></g><g id="open-g47" transform="translate(-10.7 -13.4)"><defs id="open-defs49"><path d="M31.2 16.7c-5.7 2.6-14.1 7.3-14.1 14.5 1.8-.4 3.7-.1 5.4.6 1.6 1.1 2.5 2.8 2.5 4.7 0 4-3.2 6.6-7 6.6-4.8 0-7.3-4.4-7.3-8.7 0-10.4 10.4-17.4 19-21l1.5 3.3zm19.2 0c-5.7 2.6-14.1 7.3-14.1 14.5 1.8-.4 3.7-.1 5.4.6 1.6 1.1 2.5 2.8 2.5 4.7 0 4-3.2 6.6-7 6.6-4.8 0-7.3-4.4-7.3-8.7C29.9 24 40.3 17 49 13.4l1.4 3.3z" id="open-SVGID_7_"/></defs><clipPath id="open-SVGID_8_"><use id="open-use53" width="56.7" height="56.7" xmlns:xlink="http://www.w3.org/1999/xlink" xlink:href="#open-SVGID_7_" overflow="visible"/></clipPath></g></g></g></symbol><symbol id="speechbubble-2-gold" viewBox="0 0 39.600001 29.7"><g id="close-g5"><g id="close-g7"><g id="close-g9" transform="translate(-9.8 -15.6)"><defs id="close-defs11"><path d="M28.9 42C34.6 39.4 43 34.7 43 27.5c-1.8.4-3.7.1-5.4-.6-1.6-1.1-2.5-2.8-2.5-4.7 0-4 3.2-6.6 7-6.6 4.8 0 7.3 4.4 7.3 8.7 0 10.4-10.4 17.4-19 21L28.9 42zM9.8 42c5.7-2.6 14.1-7.3 14.1-14.5-1.8.4-3.7.1-5.4-.6-1.6-1.1-2.5-2.8-2.5-4.7 0-4 3.2-6.6 7-6.6 4.8 0 7.3 4.4 7.3 8.7 0 10.4-10.4 17.4-19.1 21L9.8 42z" id="close-SVGID_1_"/></defs><clipPath id="close-SVGID_2_"><use id="close-use15" width="56.7" height="56.7" xmlns:xlink="http://www.w3.org/1999/xlink" xlink:href="#close-SVGID_1_" overflow="visible"/></clipPath></g><g id="close-g17" transform="translate(-9.8 -15.6)"><defs id="close-defs19"><path d="M28.9 42C34.6 39.4 43 34.7 43 27.5c-1.8.4-3.7.1-5.4-.6-1.6-1.1-2.5-2.8-2.5-4.7 0-4 3.2-6.6 7-6.6 4.8 0 7.3 4.4 7.3 8.7 0 10.4-10.4 17.4-19 21L28.9 42zM9.8 42c5.7-2.6 14.1-7.3 14.1-14.5-1.8.4-3.7.1-5.4-.6-1.6-1.1-2.5-2.8-2.5-4.7 0-4 3.2-6.6 7-6.6 4.8 0 7.3 4.4 7.3 8.7 0 10.4-10.4 17.4-19.1 21L9.8 42z" id="close-SVGID_3_"/></defs><linearGradient x1="3192.672" y1="2279.056" x2="3225.672" y2="2249.056" id="close-SVGID_4_" gradientUnits="userSpaceOnUse" gradientTransform="rotate(180 1633.101 1133.705)"><stop id="close-stop23" offset="0" stop-color="#d9c28f"/><stop id="close-stop25" offset=".329" stop-color="#9c8341"/><stop id="close-stop27" offset=".628" stop-color="#918336"/><stop id="close-stop29" offset="1" stop-color="#f3e094"/></linearGradient><use id="close-use31" width="56.7" height="56.7" xmlns:xlink="http://www.w3.org/1999/xlink" xlink:href="#close-SVGID_3_" fill="url(#close-SVGID_4_)" overflow="visible"/><clipPath id="close-SVGID_5_"><use id="close-use34" width="56.7" height="56.7" xmlns:xlink="http://www.w3.org/1999/xlink" xlink:href="#close-SVGID_3_" overflow="visible"/></clipPath><linearGradient x1="3191.611" y1="2277.888" x2="3224.611" y2="2247.888" id="close-SVGID_6_" gradientUnits="userSpaceOnUse" gradientTransform="rotate(180 1633.101 1133.705)"><stop id="close-stop37" offset="0" stop-color="#d9c28f"/><stop id="close-stop39" offset=".329" stop-color="#9c8341"/><stop id="close-stop41" offset=".628" stop-color="#918336"/><stop id="close-stop43" offset="1" stop-color="#f3e094"/></linearGradient><path clip-path="url(#close-SVGID_5_)" id="close-polygon45" fill="url(#close-SVGID_6_)" d="M-5 29L31.6-4.2l32.6 36.1L27.7 65z"/></g><g id="close-g47" transform="translate(-9.8 -15.6)"><defs id="close-defs49"><path d="M28.9 42C34.6 39.4 43 34.7 43 27.5c-1.8.4-3.7.1-5.4-.6-1.6-1.1-2.5-2.8-2.5-4.7 0-4 3.2-6.6 7-6.6 4.8 0 7.3 4.4 7.3 8.7 0 10.4-10.4 17.4-19 21L28.9 42zM9.8 42c5.7-2.6 14.1-7.3 14.1-14.5-1.8.4-3.7.1-5.4-.6-1.6-1.1-2.5-2.8-2.5-4.7 0-4 3.2-6.6 7-6.6 4.8 0 7.3 4.4 7.3 8.7 0 10.4-10.4 17.4-19.1 21L9.8 42z" id="close-SVGID_7_"/></defs><clipPath id="close-SVGID_8_"><use id="close-use53" width="56.7" height="56.7" xmlns:xlink="http://www.w3.org/1999/xlink" xlink:href="#close-SVGID_7_" overflow="visible"/></clipPath></g></g></g></symbol><symbol id="twitter" viewBox="0 0 49 49"><g fill="none" fill-rule="evenodd"><path d="M48.611 24.306C48.611 10.882 37.729 0 24.305 0 10.882 0 0 10.882 0 24.306 0 37.73 10.882 48.612 24.305 48.612c13.424 0 24.306-10.882 24.306-24.306" fill="#7CC8C1"/><path d="M11.174 34.58s13.161 6.534 21.113-1.666c5.821-6.01 5.264-13.005 5.264-13.005l2.97-3.528-3.53.497 2.477-2.23-3.589.62s-4.644-2.233-7.804-.56c-3.154 1.673-2.227 6.501-2.227 6.501s-8.916.125-12.633-6.932c0 0-2.04 5.141.931 7.927l-2.413-.87S12.97 26.6 17.43 28.27c0 0-1.61.496-3.283.247 0 0 2.228 3.836 6.316 4.397 0 0-4.458 2.595-9.288 1.666" fill="#FFF"/></g></symbol></svg>